<svg xmlns="http://www.w3.org/2000/svg" width="212" height="212" fill="none" viewBox="0 0 212 212"><path stroke="#91A7B7" stroke-width="2" d="M106 91L106 121"/><line x1="121" x2="91" y1="107" y2="107" stroke="#91A7B7" stroke-width="2"/><line x1="212" x2="182" y1="107" y2="107" stroke="#91A7B7" stroke-width="4"/><line x1="197.799" x2="171.818" y1="53" y2="68" stroke="#91A7B7" stroke-width="2"/><line x1="158.982" x2="143.982" y1="14.317" y2="40.298" stroke="#91A7B7" stroke-width="2"/><line x1="133.046" x2="125.281" y1="3.452" y2="32.429" stroke="#91A7B7"/><line x1="78.271" x2="86.035" y1="3.546" y2="32.524" stroke="#91A7B7"/><line x1="30.973" x2="52.186" y1="31.576" y2="52.79" stroke="#91A7B7"/><line x1="106" x2="106" y1="0" y2="30" stroke="#91A7B7" stroke-width="4"/><line x1="53" x2="68" y1="14.201" y2="40.182" stroke="#91A7B7" stroke-width="2"/><line x1="30.775" x2="51.988" y1="31.253" y2="52.466" stroke="#91A7B7"/><line x1="3.602" x2="32.58" y1="78.758" y2="86.523" stroke="#91A7B7"/><line x1="3.914" x2="32.892" y1="134.046" y2="126.282" stroke="#91A7B7"/><line x1="14.183" x2="40.164" y1="53.116" y2="68.116" stroke="#91A7B7" stroke-width="2"/><line x1="3.576" x2="32.554" y1="79.017" y2="86.782" stroke="#91A7B7"/><line x1="3.93" x2="32.908" y1="133.723" y2="125.958" stroke="#91A7B7"/><line x1="31.68" x2="52.893" y1="181.483" y2="160.27" stroke="#91A7B7"/><line x1="30" x2="0" y1="107" y2="107" stroke="#91A7B7" stroke-width="4"/><line x1="40.182" x2="14.201" y1="144" y2="159" stroke="#91A7B7" stroke-width="2"/><line x1="67.982" x2="52.982" y1="171.934" y2="197.914" stroke="#91A7B7" stroke-width="2"/><line x1="85.941" x2="78.176" y1="179.25" y2="208.228" stroke="#91A7B7"/><line x1="125.376" x2="133.141" y1="179.345" y2="208.323" stroke="#91A7B7"/><line x1="159.666" x2="180.88" y1="160.27" y2="181.483" stroke="#91A7B7"/><line x1="106" x2="106" y1="182" y2="212" stroke="#91A7B7" stroke-width="4"/><line x1="144" x2="159" y1="171.818" y2="197.799" stroke="#91A7B7" stroke-width="2"/><line x1="171.8" x2="197.78" y1="144.116" y2="159.116" stroke="#91A7B7" stroke-width="2"/><line x1="179.375" x2="208.353" y1="126.122" y2="133.887" stroke="#91A7B7"/><line x1="179.729" x2="208.706" y1="86.618" y2="78.853" stroke="#91A7B7"/><line x1="160.373" x2="181.587" y1="52.79" y2="31.576" stroke="#91A7B7"/></svg>